<?xml version="1.0" standalone="no"?><!DOCTYPE svg PUBLIC "-//W3C//DTD SVG 1.1//EN" "http://www.w3.org/Graphics/SVG/1.1/DTD/svg11.dtd"><svg t="1560171765535" class="icon" style="" viewBox="0 0 1024 1024" version="1.1" xmlns="http://www.w3.org/2000/svg" p-id="4803" xmlns:xlink="http://www.w3.org/1999/xlink" width="200" height="200"><defs><style type="text/css"></style></defs><path d="M956.852543 831.97824V64.00384c0-35.373373-28.630467-63.9936-64.00384-63.9936H124.869183c-35.373373 0-63.98336 28.620228-63.983361 63.9936v863.98272c0 52.760545 43.217056 96.01344 95.99296 96.01344H941.149817a16.306874 16.306874 0 0 0 16.286394-16.286394 16.301754 16.301754 0 0 0-16.286394-16.286395h-16.286394v-128.002559c17.960601 0.563189 31.98912-14.028519 31.98912-31.446412M108.040079 78.600668c0-17.407652 14.586588-31.99936 31.99424-31.99936h48.838704v770.252755h-31.994241c-24.708626 0-30.330273 0-49.417251 13.444851V78.600668h0.578548z m770.222036 898.782664H156.878782c-35.373373 0-52.775904-21.329493-52.775904-56.697746 0-35.373373 17.402532-56.697746 52.775904-56.697746h721.383333v113.395492z m-642.234836-159.9968V46.596188h642.234836c17.402532 0 31.99424 14.596828 31.99424 31.99936v738.248275H236.027279v0.542709z" fill="#040000" p-id="4804"></path><path d="M660.446311 407.569449H356.728865c-8.98542 0-16.271035 7.853923-16.271034 17.96572 0 10.096438 7.285614 17.965721 16.271034 17.965721h303.717446c8.964941 0 16.286394-7.874403 16.286394-17.965721 0-10.111798-7.321454-17.965721-16.286394-17.96572M772.725665 311.576488H356.728865c-8.98542 0-16.286394 7.853923-16.286394 17.965721 0 10.096438 7.300974 17.965721 16.286394 17.965721h415.9968c8.970061 0 16.286394-7.869283 16.286395-17.965721-0.00512-10.111798-7.316334-17.965721-16.286395-17.965721M356.728865 250.946661h192.00128c8.98542 0 16.286394-7.853923 16.286395-17.412772 0-9.533249-7.300974-17.387172-16.286395-17.387172H356.728865c-8.98542 0-16.271035 7.853923-16.271034 17.387172 0 9.558849 7.285614 17.412772 16.271034 17.412772" fill="#040000" p-id="4805"></path></svg>